<svg width="48" height="48" viewBox="0 0 48 48" fill="none" xmlns="http://www.w3.org/2000/svg">
<path d="M24 44C21.2 44 18.5833 43.4833 16.15 42.45C13.7167 41.4167 11.6 40 9.8 38.2C8 36.4 6.58333 34.2833 5.55 31.85C4.51667 29.4167 4 26.8 4 24C4 21.2 4.51667 18.5833 5.55 16.15C6.58333 13.7167 8 11.6 9.8 9.8C11.6 8 13.7167 6.58333 16.15 5.55C18.5833 4.51667 21.2 4 24 4C24.4 4 24.75 4.15 25.05 4.45C25.35 4.75 25.5 5.1 25.5 5.5C25.5 5.9 25.35 6.25 25.05 6.55C24.75 6.85 24.4 7 24 7C19.3 7 15.2917 8.65833 11.975 11.975C8.65833 15.2917 7 19.3 7 24C7 28.7 8.65833 32.7083 11.975 36.025C15.2917 39.3417 19.3 41 24 41C28.7 41 32.7083 39.3417 36.025 36.025C39.3417 32.7083 41 28.7 41 24C41 23.6 41.15 23.25 41.45 22.95C41.75 22.65 42.1 22.5 42.5 22.5C42.9 22.5 43.25 22.65 43.55 22.95C43.85 23.25 44 23.6 44 24C44 26.8 43.4833 29.4167 42.45 31.85C41.4167 34.2833 40 36.4 38.2 38.2C36.4 40 34.2833 41.4167 31.85 42.45C29.4167 43.4833 26.8 44 24 44Z" fill="white"/>
</svg>
